<?xml version="1.0" encoding="utf-8"?>
<svg width="100%" height="100%" viewBox="0 0 30 50" version="1.1" xmlns="http://www.w3.org/2000/svg" style="fill-rule:evenodd;clip-rule:evenodd;stroke-linejoin:round;stroke-miterlimit:2;">
  <g transform="matrix(1,0,0,1,-1350.84,-3315)">
    <g transform="matrix(1.03821,0,0,0.96171,7.26748,1761.35)">
      <g transform="matrix(-0.125367,0,0,0.13534,1326.22,1606.85)">
        <path d="M41.4,233.4C28.9,245.9 28.9,266.2 41.4,278.7L201.4,438.7C213.9,451.2 234.2,451.2 246.7,438.7C259.2,426.2 259.2,405.9 246.7,393.4L109.3,256L246.6,118.6C259.1,106.1 259.1,85.8 246.6,73.3C234.1,60.8 213.8,60.8 201.3,73.3L41.3,233.3L41.4,233.4Z" style="fill:white;fill-rule:nonzero;"/>
      </g>
    </g>
  </g>
</svg>