<?xml version="1.0" encoding="utf-8"?>
<svg width="100%" height="100%" viewBox="0 0 28 28" version="1.1" xmlns="http://www.w3.org/2000/svg" style="fill-rule:evenodd;clip-rule:evenodd;stroke-linejoin:round;stroke-miterlimit:2;">
  <path d="M 27.898 10.658 C 28.155 11.446 27.911 12.317 27.28 12.856 L 21.655 17.71 L 23.375 24.969 C 23.412 25.125 23.431 25.284 23.431 25.445 C 23.431 26.569 22.506 27.495 21.381 27.495 C 21.005 27.495 20.637 27.391 20.316 27.196 L 14 23.311 L 7.687 27.196 C 7.365 27.395 6.993 27.5 6.615 27.5 C 5.491 27.5 4.567 26.576 4.567 25.453 C 4.567 25.29 4.587 25.127 4.625 24.969 L 6.339 17.711 L 0.714 12.858 C 0.261 12.467 0.001 11.898 0.001 11.3 C 0.001 10.237 0.825 9.34 1.885 9.25 L 9.264 8.654 L 12.109 1.769 C 12.423 1.003 13.173 0.5 14.001 0.5 C 14.828 0.5 15.578 1.003 15.892 1.769 L 18.74 8.655 L 26.115 9.25 C 26.937 9.316 27.642 9.873 27.898 10.658 Z" style="fill:white;"/>
</svg>