<?xml version="1.0" encoding="utf-8"?>
<svg width="100%" height="100%" viewBox="0 0 28 28" version="1.1" xmlns="http://www.w3.org/2000/svg" style="fill-rule:evenodd;clip-rule:evenodd;stroke-linejoin:round;stroke-miterlimit:2;">
  <path d="M 27.898 10.658 C 27.642 9.873 26.937 9.316 26.115 9.25 L 18.74 8.655 L 15.892 1.769 C 15.578 1.003 14.828 0.5 14.001 0.5 C 13.173 0.5 12.423 1.003 12.109 1.769 L 9.264 8.654 L 1.885 9.25 C 0.825 9.34 0.001 10.237 0.001 11.3 C 0.001 11.898 0.261 12.467 0.714 12.858 L 6.339 17.711 L 4.625 24.969 C 4.587 25.127 4.567 25.289 4.567 25.452 C 4.567 26.576 5.491 27.5 6.615 27.5 C 6.993 27.5 7.365 27.395 7.687 27.196 L 14 23.311 L 20.316 27.196 C 20.637 27.391 21.005 27.494 21.381 27.494 C 22.506 27.494 23.431 26.569 23.431 25.444 C 23.431 25.284 23.412 25.125 23.375 24.969 L 21.655 17.71 L 27.28 12.856 C 27.911 12.317 28.155 11.446 27.898 10.658 Z M 25.98 11.341 L 19.892 16.591 C 19.61 16.835 19.486 17.217 19.572 17.58 L 21.432 25.43 C 21.442 25.452 21.433 25.479 21.411 25.49 C 21.389 25.507 21.383 25.504 21.364 25.49 L 14.524 21.284 C 14.203 21.087 13.797 21.087 13.476 21.284 L 6.636 25.493 C 6.618 25.504 6.613 25.508 6.589 25.493 C 6.567 25.481 6.558 25.455 6.567 25.432 L 8.428 17.583 C 8.514 17.22 8.39 16.837 8.108 16.594 L 2.02 11.344 C 2.005 11.331 1.991 11.32 2.004 11.281 C 2.016 11.243 2.026 11.248 2.045 11.245 L 10.035 10.6 C 10.408 10.568 10.733 10.329 10.875 9.983 L 13.953 2.531 C 13.963 2.51 13.966 2.5 13.996 2.5 C 14.026 2.5 14.03 2.51 14.04 2.531 L 17.125 9.983 C 17.268 10.329 17.595 10.567 17.969 10.598 L 25.959 11.243 C 25.978 11.243 25.989 11.243 26 11.279 C 26.011 11.315 26 11.329 25.98 11.341 Z" style="fill:white;fill-rule:nonzero;"/>
</svg>