<?xml version="1.0" encoding="utf-8"?>
<svg width="100%" height="100%" viewBox="0 0 275 775" version="1.1" style="fill-rule:evenodd;clip-rule:evenodd;stroke-linejoin:round;stroke-miterlimit:2;" xmlns="http://www.w3.org/2000/svg">
  <path d="M 5 485 L 275 485 L 275 581 L 5 581 L 5 485 Z" style="fill:white;fill-opacity:0.1;"/>
  <path d="M 5 582 L 275 582 L 275 678 L 5 678 L 5 582 Z" style="fill:white;fill-opacity:0.1;"/>
  <path d="M 5 679 L 275 679 L 275 775 L 5 775 L 5 679 Z" style="fill:white;fill-opacity:0.1;"/>
  <path d="M 5 0 L 275 0 L 275 96 L 5 96 L 5 0 Z" style="fill:white;fill-opacity:0.1;"/>
  <path d="M 0 -0.007 H 5 V 774.992 H 0 V -0.007 Z" style="fill-opacity: 0.05;"/>
  <path d="M 5 291 L 275 291 L 275 387 L 5 387 L 5 291 Z" style="fill:white;fill-opacity:0.1;"/>
  <path d="M 5 388 L 275 388 L 275 484 L 5 484 L 5 388 Z" style="fill:white;fill-opacity:0.1;"/>
  <path d="M 5 97 L 275 97 L 275 193 L 5 193 L 5 97 Z" style="fill:white;fill-opacity:0.1;"/>
  <path d="M 5 194 L 275 194 L 275 290 L 5 290 L 5 194 Z" style="fill:white;fill-opacity:0.1;"/>
</svg>