<?xml version="1.0" encoding="UTF-8" standalone="no"?>
<!DOCTYPE svg PUBLIC "-//W3C//DTD SVG 1.1//EN" "http://www.w3.org/Graphics/SVG/1.1/DTD/svg11.dtd">
<svg width="100%" height="100%" viewBox="0 0 260 775" version="1.1" xmlns="http://www.w3.org/2000/svg" xmlns:xlink="http://www.w3.org/1999/xlink" xml:space="preserve" xmlns:serif="http://www.serif.com/" style="fill-rule:evenodd;clip-rule:evenodd;stroke-linejoin:round;stroke-miterlimit:2;">
    <g transform="matrix(1.0119,0,0,0.680851,-100.238,-45.383)">
        <rect x="104" y="779" width="252" height="141" style="fill:white;fill-opacity:0.1;"/>
    </g>
    <g transform="matrix(1.0119,0,0,0.680851,-100.238,51.617)">
        <rect x="104" y="779" width="252" height="141" style="fill:white;fill-opacity:0.1;"/>
    </g>
    <g transform="matrix(1.0119,0,0,0.680851,-100.238,148.617)">
        <rect x="104" y="779" width="252" height="141" style="fill:white;fill-opacity:0.1;"/>
    </g>
    <g transform="matrix(1.0119,0,0,0.680851,-100.238,-530.383)">
        <rect x="104" y="779" width="252" height="141" style="fill:white;fill-opacity:0.1;"/>
    </g>
    <g transform="matrix(1.25,0,0,4.45402,-122.5,-3438.51)">
        <rect x="98" y="772" width="4" height="174" style="fill-opacity:0.3;"/>
    </g>
    <g transform="matrix(1.0119,0,0,0.680851,-100.238,-239.383)">
        <rect x="104" y="779" width="252" height="141" style="fill:white;fill-opacity:0.1;"/>
    </g>
    <g transform="matrix(1.0119,0,0,0.680851,-100.238,-142.383)">
        <rect x="104" y="779" width="252" height="141" style="fill:white;fill-opacity:0.1;"/>
    </g>
    <g transform="matrix(1.0119,0,0,0.680851,-100.238,-433.383)">
        <rect x="104" y="779" width="252" height="141" style="fill:white;fill-opacity:0.1;"/>
    </g>
    <g transform="matrix(1.0119,0,0,0.680851,-100.238,-336.383)">
        <rect x="104" y="779" width="252" height="141" style="fill:white;fill-opacity:0.1;"/>
    </g>
</svg>
