<?xml version="1.0" encoding="utf-8"?>
<svg width="100%" height="100%" viewBox="0 0 260 775" version="1.1" style="fill-rule:evenodd;clip-rule:evenodd;stroke-linejoin:round;stroke-miterlimit:2;" xmlns="http://www.w3.org/2000/svg">
  <path d="M 0 -0.007 L 5 -0.007 L 5 774.993 L 0 774.993 L 0 -0.007 Z" style="fill: rgb(255, 255, 255); fill-opacity: 0.5;"/>
  <path d="M 5 0 H 259.999 V 96 H 5 V 0 Z" style="fill: rgb(255, 255, 255); fill-opacity: 0.3;"/>
  <path d="M 5 679 H 259.999 V 775 H 5 V 679 Z" style="fill: rgb(255, 255, 255); fill-opacity: 0.3;"/>
  <path d="M 5 582 H 259.999 V 678 H 5 V 582 Z" style="fill: rgb(255, 255, 255); fill-opacity: 0.3;"/>
  <path d="M 5 485 H 259.999 V 581 H 5 V 485 Z" style="fill: rgb(255, 255, 255); fill-opacity: 0.3;"/>
  <path d="M 5 291 H 259.999 V 387 H 5 V 291 Z" style="fill: rgb(255, 255, 255); fill-opacity: 0.3;"/>
  <path d="M 5 388 H 259.999 V 484 H 5 V 388 Z" style="fill: rgb(255, 255, 255); fill-opacity: 0.3;"/>
  <path d="M 5 97 H 259.999 V 193 H 5 V 97 Z" style="fill: rgb(255, 255, 255); fill-opacity: 0.3;"/>
  <path d="M 5 194 H 259.999 V 290 H 5 V 194 Z" style="fill: rgb(255, 255, 255); fill-opacity: 0.3;"/>
</svg>